<?xml version="1.0" encoding="UTF-8" standalone="yes"?>
<!-- Created with sK1/UniConvertor (http://sk1project.org/) -->
<svg xmlns="http://www.w3.org/2000/svg" xmlns:xlink="http://www.w3.org/1999/xlink"
  width="595.276pt" height="841.89pt" viewBox="0 0 595.276 841.89"
  fill-rule="evenodd">
<g>
<path style="stroke:#000000; stroke-width:0.850394; stroke-linejoin:round; stroke-linecap:round; fill:none" d="M 0.833929 842.128L 11.6107 842.128"/>
<path style="stroke:#000000; stroke-width:0.850394; stroke-linejoin:round; stroke-linecap:round; fill:none" d="M 11.8315 842.196C 11.7294 842.093 11.5543 842.103 11.4406 842.216C 11.327 842.33 11.3176 842.505 11.4198 842.607C 11.5219 842.709 11.697 842.7 11.8107 842.586C 11.9243 842.473 11.9337 842.298 11.8315 842.196z"/>
<path style="stroke:#000000; stroke-width:0.850394; stroke-linejoin:round; stroke-linecap:round; fill:none" d="M 11.9019 842.39L 11.9019 850.368"/>
<path style="stroke:#000000; stroke-width:0.850394; stroke-linejoin:round; stroke-linecap:round; fill:none" d="M 11.8345 850.147C 11.7324 850.045 11.5572 850.055 11.4436 850.168C 11.3299 850.282 11.3206 850.457 11.4227 850.559C 11.5249 850.661 11.7 850.652 11.8136 850.538C 11.9273 850.425 11.9366 850.249 11.8345 850.147z"/>
<path style="stroke:#000000; stroke-width:0.850394; stroke-linejoin:round; stroke-linecap:round; fill:none" d="M 11.6107 850.63L 0.833929 850.63"/>
<path style="stroke:#000000; stroke-width:0.850394; stroke-linejoin:round; stroke-linecap:round; fill:none" d="M 1.02488 850.151C 0.922749 850.049 0.747607 850.058 0.633965 850.172C 0.520324 850.285 0.510981 850.46 0.613113 850.562C 0.715245 850.665 0.890386 850.655 1.00403 850.542C 1.11767 850.428 1.12701 850.253 1.02488 850.151z"/>
<path style="stroke:#000000; stroke-width:0.850394; stroke-linejoin:round; stroke-linecap:round; fill:none" d="M 0.542765 850.368L 0.542765 842.39"/>
<path style="stroke:#000000; stroke-width:0.850394; stroke-linejoin:round; stroke-linecap:round; fill:none" d="M 1.02191 842.199C 0.919775 842.097 0.744633 842.106 0.630991 842.22C 0.517349 842.333 0.508007 842.508 0.610139 842.611C 0.71227 842.713 0.887412 842.703 1.00105 842.59C 1.1147 842.476 1.12404 842.301 1.02191 842.199z"/>
<path style="stroke:#000000; stroke-width:0.850394; stroke-linejoin:round; stroke-linecap:round; fill:none" d="M 8.79579 846.379C 8.79579 845.857 8.37237 845.434 7.85072 845.434C 7.32906 845.434 6.90564 845.857 6.90564 846.379C 6.90564 846.901 7.32906 847.324 7.85072 847.324C 8.37237 847.324 8.79579 846.901 8.79579 846.379z"/>
<path style="stroke:#000000; stroke-width:0.850394; stroke-linejoin:round; stroke-linecap:round; fill:none" d="M 11.6107 850.63C 11.772 850.63 11.9019 850.746 11.9019 850.891"/>
<path style="stroke:#000000; stroke-width:0.850394; stroke-linejoin:round; stroke-linecap:round; fill:none" d="M 11.9019 850.891L 11.9019 858.87"/>
<path style="stroke:#000000; stroke-width:0.850394; stroke-linejoin:round; stroke-linecap:round; fill:none" d="M 11.9019 858.87C 11.9019 859.015 11.772 859.131 11.6107 859.131"/>
<path style="stroke:#000000; stroke-width:0.850394; stroke-linejoin:round; stroke-linecap:round; fill:none" d="M 11.6107 859.131L 0.83393 859.131"/>
<path style="stroke:#000000; stroke-width:0.850394; stroke-linejoin:round; stroke-linecap:round; fill:none" d="M 0.83393 859.131C 0.672626 859.131 0.542766 859.015 0.542766 858.87"/>
<path style="stroke:#000000; stroke-width:0.850394; stroke-linejoin:round; stroke-linecap:round; fill:none" d="M 0.542766 858.87L 0.542766 850.891"/>
<path style="stroke:#000000; stroke-width:0.850394; stroke-linejoin:round; stroke-linecap:round; fill:none" d="M 0.542766 850.891C 0.542766 850.746 0.672626 850.63 0.833929 850.63"/>
<path style="stroke:#000000; stroke-width:0.850394; stroke-linejoin:round; stroke-linecap:round; fill:none" d="M 8.47972 854.997L 7.2067 854.997L 6.91468 855.289L 6.91468 855.619L 7.2067 855.911L 8.47972 855.911L 8.77174 855.619L 8.77174 855.289L 8.47972 854.997z"/>
<path style="stroke:#000000; stroke-width:0.850394; stroke-linejoin:round; stroke-linecap:round; fill:none" d="M 10.4397 846.11L 9.73152 846.11L 9.46175 846.38L 9.73152 846.649L 10.4397 846.649L 10.7095 846.38L 10.4397 846.11z"/>
<path style="stroke:#000000; stroke-width:0.850394; stroke-linejoin:round; stroke-linecap:round; fill:none" d="M 2.63403 843.766L 2.13327 843.265L 1.75176 843.265L 1.75176 843.647L 2.25253 844.147L 2.63403 844.147L 2.63403 843.766z"/>
<path style="stroke:#000000; stroke-width:0.850394; stroke-linejoin:round; stroke-linecap:round; fill:none" d="M 2.25148 848.612L 1.75071 849.113L 1.75071 849.494L 2.13222 849.494L 2.63298 848.994L 2.63298 848.612L 2.25148 848.612z"/>
<path style="stroke:#000000; stroke-width:0.850394; stroke-linejoin:round; stroke-linecap:round; fill:none" d="M 5.96135 846.11L 5.25315 846.11L 4.98339 846.38L 5.25315 846.649L 5.96135 846.649L 6.23111 846.38L 5.96135 846.11z"/>
<path style="stroke:#000000; stroke-width:0.850394; stroke-linejoin:round; stroke-linecap:round; fill:none" d="M 10.4397 854.611L 9.73152 854.611L 9.46175 854.881L 9.73152 855.15L 10.4397 855.15L 10.7095 854.881L 10.4397 854.611z"/>
<path style="stroke:#000000; stroke-width:0.850394; stroke-linejoin:round; stroke-linecap:round; fill:none" d="M 2.63403 852.267L 2.13326 851.766L 1.75176 851.766L 1.75176 852.147L 2.25253 852.648L 2.63403 852.648L 2.63403 852.267z"/>
<path style="stroke:#000000; stroke-width:0.850394; stroke-linejoin:round; stroke-linecap:round; fill:none" d="M 1.75071 857.614L 2.25148 857.113"/>
<path style="stroke:#000000; stroke-width:0.850394; stroke-linejoin:round; stroke-linecap:round; fill:none" d="M 2.63295 857.113C 2.58412 857.064 2.51668 857.034 2.44223 857.034C 2.36778 857.034 2.30034 857.064 2.25151 857.113"/>
<path style="stroke:#000000; stroke-width:0.850394; stroke-linejoin:round; stroke-linecap:round; fill:none" d="M 2.63295 857.494C 2.68178 857.446 2.712 857.378 2.712 857.304C 2.712 857.229 2.68178 857.162 2.63295 857.113"/>
<path style="stroke:#000000; stroke-width:0.850394; stroke-linejoin:round; stroke-linecap:round; fill:none" d="M 2.63298 857.494L 2.13222 857.995"/>
<path style="stroke:#000000; stroke-width:0.850394; stroke-linejoin:round; stroke-linecap:round; fill:none" d="M 1.75074 857.995C 1.79957 858.044 1.86701 858.074 1.94146 858.074C 2.01591 858.074 2.08336 858.044 2.13218 857.995"/>
<path style="stroke:#000000; stroke-width:0.850394; stroke-linejoin:round; stroke-linecap:round; fill:none" d="M 1.75074 857.614C 1.70191 857.663 1.6717 857.73 1.6717 857.804C 1.6717 857.879 1.70191 857.946 1.75074 857.995"/>
<path style="stroke:#000000; stroke-width:0.850394; stroke-linejoin:round; stroke-linecap:round; fill:none" d="M 5.96135 854.611L 5.25315 854.611L 4.98339 854.881L 5.25315 855.15L 5.96135 855.15L 6.23111 854.881L 5.96135 854.611z"/>
<path style="stroke:#000000; stroke-width:0.850394; stroke-linejoin:round; stroke-linecap:round; fill:none" d="M 13.2027 842.128L 23.9795 842.128"/>
<path style="stroke:#000000; stroke-width:0.850394; stroke-linejoin:round; stroke-linecap:round; fill:none" d="M 24.2003 842.196C 24.0982 842.093 23.923 842.103 23.8094 842.216C 23.6957 842.33 23.6864 842.505 23.7885 842.607C 23.8907 842.709 24.0658 842.7 24.1794 842.586C 24.2931 842.473 24.3024 842.298 24.2003 842.196z"/>
<path style="stroke:#000000; stroke-width:0.850394; stroke-linejoin:round; stroke-linecap:round; fill:none" d="M 24.2706 842.39L 24.2706 850.368"/>
<path style="stroke:#000000; stroke-width:0.850394; stroke-linejoin:round; stroke-linecap:round; fill:none" d="M 24.2033 850.147C 24.1011 850.045 23.926 850.055 23.8124 850.168C 23.6987 850.282 23.6894 850.457 23.7915 850.559C 23.8936 850.661 24.0688 850.652 24.1824 850.538C 24.2961 850.425 24.3054 850.249 24.2033 850.147z"/>
<path style="stroke:#000000; stroke-width:0.850394; stroke-linejoin:round; stroke-linecap:round; fill:none" d="M 23.9795 850.63L 13.2027 850.63"/>
<path style="stroke:#000000; stroke-width:0.850394; stroke-linejoin:round; stroke-linecap:round; fill:none" d="M 13.3936 850.151C 13.2915 850.049 13.1164 850.058 13.0027 850.172C 12.8891 850.285 12.8797 850.46 12.9819 850.562C 13.084 850.665 13.2592 850.655 13.3728 850.542C 13.4864 850.428 13.4958 850.253 13.3936 850.151z"/>
<path style="stroke:#000000; stroke-width:0.850394; stroke-linejoin:round; stroke-linecap:round; fill:none" d="M 12.9115 850.368L 12.9115 842.39"/>
<path style="stroke:#000000; stroke-width:0.850394; stroke-linejoin:round; stroke-linecap:round; fill:none" d="M 13.3907 842.199C 13.2885 842.097 13.1134 842.106 12.9998 842.22C 12.8861 842.333 12.8768 842.508 12.9789 842.611C 13.081 842.713 13.2562 842.703 13.3698 842.59C 13.4835 842.476 13.4928 842.301 13.3907 842.199z"/>
<path style="stroke:#000000; stroke-width:0.850394; stroke-linejoin:round; stroke-linecap:round; fill:none" d="M 21.1646 846.379C 21.1646 845.857 20.7411 845.434 20.2195 845.434C 19.6978 845.434 19.2744 845.857 19.2744 846.379C 19.2744 846.901 19.6978 847.324 20.2195 847.324C 20.7411 847.324 21.1646 846.901 21.1646 846.379z"/>
<path style="stroke:#000000; stroke-width:0.850394; stroke-linejoin:round; stroke-linecap:round; fill:none" d="M 23.9795 850.63C 24.1408 850.63 24.2706 850.746 24.2706 850.891"/>
<path style="stroke:#000000; stroke-width:0.850394; stroke-linejoin:round; stroke-linecap:round; fill:none" d="M 24.2706 850.891L 24.2706 858.87"/>
<path style="stroke:#000000; stroke-width:0.850394; stroke-linejoin:round; stroke-linecap:round; fill:none" d="M 24.2706 858.87C 24.2706 859.015 24.1408 859.131 23.9795 859.131"/>
<path style="stroke:#000000; stroke-width:0.850394; stroke-linejoin:round; stroke-linecap:round; fill:none" d="M 23.9795 859.131L 13.2027 859.131"/>
<path style="stroke:#000000; stroke-width:0.850394; stroke-linejoin:round; stroke-linecap:round; fill:none" d="M 13.2027 859.131C 13.0414 859.131 12.9115 859.015 12.9115 858.87"/>
<path style="stroke:#000000; stroke-width:0.850394; stroke-linejoin:round; stroke-linecap:round; fill:none" d="M 12.9115 858.87L 12.9115 850.891"/>
<path style="stroke:#000000; stroke-width:0.850394; stroke-linejoin:round; stroke-linecap:round; fill:none" d="M 12.9115 850.891C 12.9115 850.746 13.0414 850.63 13.2027 850.63"/>
<path style="stroke:#000000; stroke-width:0.850394; stroke-linejoin:round; stroke-linecap:round; fill:none" d="M 20.8485 854.997L 19.5755 854.997L 19.2834 855.289L 19.2834 855.619L 19.5755 855.911L 20.8485 855.911L 21.1405 855.619L 21.1405 855.289L 20.8485 854.997z"/>
<path style="stroke:#000000; stroke-width:0.850394; stroke-linejoin:round; stroke-linecap:round; fill:none" d="M 22.7346 845.74L 22.7148 845.741L 22.6872 845.744L 22.6601 845.75L 22.6337 845.759L 22.6131 845.768L 22.579 845.788L 21.9858 846.13L 21.9548 846.148L 21.9358 846.162L 21.9149 846.18L 21.896 846.2L 21.8791 846.223L 21.8646 846.246L 21.8525 846.271L 21.843 846.297L 21.8361 846.324L 21.8319 846.352L 21.8305 846.38L 21.8312 846.399L 21.8346 846.427L 21.8407 846.454L 21.8494 846.481L 21.8608 846.506L 21.8746 846.53L 21.8908 846.553L 21.9092 846.574L 21.9295 846.593L 21.9517 846.609L 21.953 846.61L 21.9836 846.628L 22.5765 846.97L 22.6119 846.991L 22.6262 846.998L 22.6523 847.007L 22.6793 847.014L 22.7068 847.018L 22.7346 847.02L 22.7543 847.019L 22.7819 847.016L 22.809 847.009L 22.8354 847.001L 22.8608 846.989L 22.8849 846.975L 22.9076 846.959L 22.9285 846.941L 22.9474 846.921L 22.9643 846.898L 22.9788 846.875L 22.9909 846.85L 23.0004 846.823L 23.0073 846.797L 23.0115 846.769L 23.0129 846.741L 23.0129 846.018L 23.0122 845.999L 23.0088 845.971L 23.0027 845.944L 22.9939 845.917L 22.9826 845.892L 22.9688 845.868L 22.9526 845.845L 22.9342 845.824L 22.9139 845.805L 22.8917 845.789L 22.868 845.774L 22.8429 845.762L 22.8168 845.752L 22.7898 845.746L 22.7623 845.741L 22.7346 845.74L 22.7346 845.74z"/>
<path style="stroke:#000000; stroke-width:0.850394; stroke-linejoin:round; stroke-linecap:round; fill:none" d="M 14.8832 843.32C 14.8768 843.321 14.8705 843.323 14.8643 843.326"/>
<path style="stroke:#000000; stroke-width:0.850394; stroke-linejoin:round; stroke-linecap:round; fill:none" d="M 14.8643 843.326C 14.8555 843.329 14.8469 843.332 14.8385 843.336"/>
<path style="stroke:#000000; stroke-width:0.850394; stroke-linejoin:round; stroke-linecap:round; fill:none" d="M 14.8385 843.336C 14.83 843.34 14.8218 843.344 14.8139 843.349"/>
<path style="stroke:#000000; stroke-width:0.850394; stroke-linejoin:round; stroke-linecap:round; fill:none" d="M 14.8139 843.349C 14.8059 843.354 14.7981 843.359 14.7907 843.364"/>
<path style="stroke:#000000; stroke-width:0.850394; stroke-linejoin:round; stroke-linecap:round; fill:none" d="M 14.7907 843.364C 14.7846 843.369 14.7788 843.373 14.7731 843.378"/>
<path style="stroke:#000000; stroke-width:0.850394; stroke-linejoin:round; stroke-linecap:round; fill:none" d="M 14.7731 843.378L 14.7453 843.406"/>
<path style="stroke:#000000; stroke-width:0.850394; stroke-linejoin:round; stroke-linecap:round; fill:none" d="M 14.7453 843.406L 14.261 843.891"/>
<path style="stroke:#000000; stroke-width:0.850394; stroke-linejoin:round; stroke-linecap:round; fill:none" d="M 14.261 843.891L 14.2357 843.916"/>
<path style="stroke:#000000; stroke-width:0.850394; stroke-linejoin:round; stroke-linecap:round; fill:none" d="M 14.2357 843.916C 14.2305 843.922 14.2255 843.928 14.2208 843.934"/>
<path style="stroke:#000000; stroke-width:0.850394; stroke-linejoin:round; stroke-linecap:round; fill:none" d="M 14.2208 843.934C 14.2153 843.941 14.2102 843.949 14.2054 843.957"/>
<path style="stroke:#000000; stroke-width:0.850394; stroke-linejoin:round; stroke-linecap:round; fill:none" d="M 14.2054 843.957C 14.2006 843.965 14.1963 843.973 14.1923 843.982"/>
<path style="stroke:#000000; stroke-width:0.850394; stroke-linejoin:round; stroke-linecap:round; fill:none" d="M 14.1923 843.982C 14.1884 843.99 14.1848 843.999 14.1818 844.007"/>
<path style="stroke:#000000; stroke-width:0.850394; stroke-linejoin:round; stroke-linecap:round; fill:none" d="M 14.1818 844.007C 14.1787 844.016 14.176 844.025 14.1738 844.034"/>
<path style="stroke:#000000; stroke-width:0.850394; stroke-linejoin:round; stroke-linecap:round; fill:none" d="M 14.1738 844.034C 14.1717 844.043 14.1699 844.052 14.1686 844.061"/>
<path style="stroke:#000000; stroke-width:0.850394; stroke-linejoin:round; stroke-linecap:round; fill:none" d="M 14.1686 844.061C 14.1674 844.07 14.1666 844.08 14.1662 844.089"/>
<path style="stroke:#000000; stroke-width:0.850394; stroke-linejoin:round; stroke-linecap:round; fill:none" d="M 14.1662 844.089C 14.1661 844.093 14.166 844.096 14.166 844.1C 14.166 844.106 14.1662 844.111 14.1666 844.117"/>
<path style="stroke:#000000; stroke-width:0.850394; stroke-linejoin:round; stroke-linecap:round; fill:none" d="M 14.1666 844.117C 14.1671 844.126 14.1682 844.135 14.1696 844.145"/>
<path style="stroke:#000000; stroke-width:0.850394; stroke-linejoin:round; stroke-linecap:round; fill:none" d="M 14.1696 844.145C 14.1711 844.154 14.1731 844.163 14.1755 844.172"/>
<path style="stroke:#000000; stroke-width:0.850394; stroke-linejoin:round; stroke-linecap:round; fill:none" d="M 14.1755 844.172C 14.1772 844.178 14.1791 844.184 14.1813 844.191"/>
<path style="stroke:#000000; stroke-width:0.850394; stroke-linejoin:round; stroke-linecap:round; fill:none" d="M 14.1813 844.191C 14.1843 844.199 14.1878 844.208 14.1917 844.216"/>
<path style="stroke:#000000; stroke-width:0.850394; stroke-linejoin:round; stroke-linecap:round; fill:none" d="M 14.1917 844.216C 14.1956 844.225 14.1999 844.233 14.2046 844.241"/>
<path style="stroke:#000000; stroke-width:0.850394; stroke-linejoin:round; stroke-linecap:round; fill:none" d="M 14.2046 844.241C 14.2093 844.249 14.2144 844.257 14.2199 844.264"/>
<path style="stroke:#000000; stroke-width:0.850394; stroke-linejoin:round; stroke-linecap:round; fill:none" d="M 14.2199 844.264C 14.2254 844.272 14.2313 844.279 14.2375 844.286"/>
<path style="stroke:#000000; stroke-width:0.850394; stroke-linejoin:round; stroke-linecap:round; fill:none" d="M 14.2375 844.286C 14.2437 844.293 14.2502 844.299 14.2571 844.306"/>
<path style="stroke:#000000; stroke-width:0.850394; stroke-linejoin:round; stroke-linecap:round; fill:none" d="M 14.2571 844.306C 14.264 844.312 14.2711 844.318 14.2786 844.323"/>
<path style="stroke:#000000; stroke-width:0.850394; stroke-linejoin:round; stroke-linecap:round; fill:none" d="M 14.2786 844.323C 14.286 844.329 14.2937 844.334 14.3017 844.339"/>
<path style="stroke:#000000; stroke-width:0.850394; stroke-linejoin:round; stroke-linecap:round; fill:none" d="M 14.3017 844.339C 14.3096 844.343 14.3178 844.348 14.3262 844.352"/>
<path style="stroke:#000000; stroke-width:0.850394; stroke-linejoin:round; stroke-linecap:round; fill:none" d="M 14.3263 844.352C 14.3346 844.356 14.3432 844.359 14.352 844.362"/>
<path style="stroke:#000000; stroke-width:0.850394; stroke-linejoin:round; stroke-linecap:round; fill:none" d="M 14.352 844.362C 14.3525 844.362 14.353 844.363 14.3535 844.363"/>
<path style="stroke:#000000; stroke-width:0.850394; stroke-linejoin:round; stroke-linecap:round; fill:none" d="M 14.3535 844.363L 14.3876 844.372"/>
<path style="stroke:#000000; stroke-width:0.850394; stroke-linejoin:round; stroke-linecap:round; fill:none" d="M 14.3876 844.372L 15.049 844.549"/>
<path style="stroke:#000000; stroke-width:0.850394; stroke-linejoin:round; stroke-linecap:round; fill:none" d="M 15.049 844.549L 15.0884 844.56"/>
<path style="stroke:#000000; stroke-width:0.850394; stroke-linejoin:round; stroke-linecap:round; fill:none" d="M 15.0884 844.56C 15.0935 844.561 15.0987 844.562 15.104 844.563"/>
<path style="stroke:#000000; stroke-width:0.850394; stroke-linejoin:round; stroke-linecap:round; fill:none" d="M 15.104 844.563C 15.1131 844.564 15.1223 844.565 15.1317 844.565"/>
<path style="stroke:#000000; stroke-width:0.850394; stroke-linejoin:round; stroke-linecap:round; fill:none" d="M 15.1317 844.565C 15.1353 844.565 15.1389 844.565 15.1425 844.565C 15.1482 844.565 15.1539 844.565 15.1595 844.565"/>
<path style="stroke:#000000; stroke-width:0.850394; stroke-linejoin:round; stroke-linecap:round; fill:none" d="M 15.1595 844.565C 15.1688 844.564 15.1781 844.563 15.1871 844.562"/>
<path style="stroke:#000000; stroke-width:0.850394; stroke-linejoin:round; stroke-linecap:round; fill:none" d="M 15.1871 844.562C 15.1964 844.56 15.2055 844.558 15.2144 844.556"/>
<path style="stroke:#000000; stroke-width:0.850394; stroke-linejoin:round; stroke-linecap:round; fill:none" d="M 15.2144 844.556C 15.2208 844.554 15.227 844.552 15.2332 844.55"/>
<path style="stroke:#000000; stroke-width:0.850394; stroke-linejoin:round; stroke-linecap:round; fill:none" d="M 15.2332 844.55C 15.242 844.547 15.2506 844.544 15.259 844.54"/>
<path style="stroke:#000000; stroke-width:0.850394; stroke-linejoin:round; stroke-linecap:round; fill:none" d="M 15.259 844.54C 15.2675 844.536 15.2757 844.531 15.2837 844.527"/>
<path style="stroke:#000000; stroke-width:0.850394; stroke-linejoin:round; stroke-linecap:round; fill:none" d="M 15.2837 844.527C 15.2917 844.522 15.2994 844.517 15.3069 844.511"/>
<path style="stroke:#000000; stroke-width:0.850394; stroke-linejoin:round; stroke-linecap:round; fill:none" d="M 15.3069 844.511C 15.3143 844.506 15.3215 844.5 15.3284 844.494"/>
<path style="stroke:#000000; stroke-width:0.850394; stroke-linejoin:round; stroke-linecap:round; fill:none" d="M 15.3284 844.494C 15.3353 844.488 15.3419 844.481 15.3482 844.474"/>
<path style="stroke:#000000; stroke-width:0.850394; stroke-linejoin:round; stroke-linecap:round; fill:none" d="M 15.3482 844.474C 15.3544 844.467 15.3603 844.46 15.3659 844.453"/>
<path style="stroke:#000000; stroke-width:0.850394; stroke-linejoin:round; stroke-linecap:round; fill:none" d="M 15.3658 844.453C 15.3714 844.445 15.3765 844.438 15.3813 844.43"/>
<path style="stroke:#000000; stroke-width:0.850394; stroke-linejoin:round; stroke-linecap:round; fill:none" d="M 15.3813 844.43C 15.3861 844.422 15.3904 844.413 15.3944 844.405"/>
<path style="stroke:#000000; stroke-width:0.850394; stroke-linejoin:round; stroke-linecap:round; fill:none" d="M 15.3944 844.405C 15.3983 844.397 15.4018 844.388 15.4049 844.379"/>
<path style="stroke:#000000; stroke-width:0.850394; stroke-linejoin:round; stroke-linecap:round; fill:none" d="M 15.4049 844.379C 15.408 844.371 15.4106 844.362 15.4128 844.353"/>
<path style="stroke:#000000; stroke-width:0.850394; stroke-linejoin:round; stroke-linecap:round; fill:none" d="M 15.4128 844.353C 15.415 844.344 15.4167 844.335 15.418 844.325"/>
<path style="stroke:#000000; stroke-width:0.850394; stroke-linejoin:round; stroke-linecap:round; fill:none" d="M 15.418 844.325C 15.4193 844.316 15.4201 844.307 15.4204 844.298"/>
<path style="stroke:#000000; stroke-width:0.850394; stroke-linejoin:round; stroke-linecap:round; fill:none" d="M 15.4204 844.298C 15.4206 844.294 15.4206 844.29 15.4206 844.287C 15.4206 844.281 15.4205 844.275 15.4201 844.27"/>
<path style="stroke:#000000; stroke-width:0.850394; stroke-linejoin:round; stroke-linecap:round; fill:none" d="M 15.4201 844.27C 15.4195 844.26 15.4185 844.251 15.417 844.242"/>
<path style="stroke:#000000; stroke-width:0.850394; stroke-linejoin:round; stroke-linecap:round; fill:none" d="M 15.417 844.242C 15.4155 844.233 15.4136 844.224 15.4112 844.215"/>
<path style="stroke:#000000; stroke-width:0.850394; stroke-linejoin:round; stroke-linecap:round; fill:none" d="M 15.4112 844.215L 15.224 843.517"/>
<path style="stroke:#000000; stroke-width:0.850394; stroke-linejoin:round; stroke-linecap:round; fill:none" d="M 15.2241 843.517C 15.2224 843.51 15.2205 843.504 15.2183 843.498"/>
<path style="stroke:#000000; stroke-width:0.850394; stroke-linejoin:round; stroke-linecap:round; fill:none" d="M 15.2183 843.498C 15.2153 843.489 15.2118 843.48 15.2079 843.472"/>
<path style="stroke:#000000; stroke-width:0.850394; stroke-linejoin:round; stroke-linecap:round; fill:none" d="M 15.2079 843.472C 15.204 843.464 15.1997 843.455 15.195 843.447"/>
<path style="stroke:#000000; stroke-width:0.850394; stroke-linejoin:round; stroke-linecap:round; fill:none" d="M 15.195 843.447C 15.1902 843.439 15.1851 843.432 15.1796 843.424"/>
<path style="stroke:#000000; stroke-width:0.850394; stroke-linejoin:round; stroke-linecap:round; fill:none" d="M 15.1796 843.424C 15.1741 843.417 15.1683 843.409 15.1621 843.403"/>
<path style="stroke:#000000; stroke-width:0.850394; stroke-linejoin:round; stroke-linecap:round; fill:none" d="M 15.1621 843.403C 15.1559 843.396 15.1493 843.389 15.1425 843.383"/>
<path style="stroke:#000000; stroke-width:0.850394; stroke-linejoin:round; stroke-linecap:round; fill:none" d="M 15.1425 843.383C 15.1356 843.377 15.1284 843.371 15.121 843.365"/>
<path style="stroke:#000000; stroke-width:0.850394; stroke-linejoin:round; stroke-linecap:round; fill:none" d="M 15.121 843.365C 15.1136 843.36 15.1058 843.354 15.0979 843.35"/>
<path style="stroke:#000000; stroke-width:0.850394; stroke-linejoin:round; stroke-linecap:round; fill:none" d="M 15.0979 843.35C 15.0899 843.345 15.0817 843.341 15.0733 843.337"/>
<path style="stroke:#000000; stroke-width:0.850394; stroke-linejoin:round; stroke-linecap:round; fill:none" d="M 15.0733 843.337C 15.065 843.333 15.0564 843.329 15.0476 843.326"/>
<path style="stroke:#000000; stroke-width:0.850394; stroke-linejoin:round; stroke-linecap:round; fill:none" d="M 15.0476 843.326C 15.0389 843.323 15.0299 843.32 15.0209 843.318"/>
<path style="stroke:#000000; stroke-width:0.850394; stroke-linejoin:round; stroke-linecap:round; fill:none" d="M 15.0209 843.318C 15.0119 843.316 15.0028 843.314 14.9935 843.313"/>
<path style="stroke:#000000; stroke-width:0.850394; stroke-linejoin:round; stroke-linecap:round; fill:none" d="M 14.9935 843.313C 14.9844 843.312 14.9752 843.311 14.9658 843.31"/>
<path style="stroke:#000000; stroke-width:0.850394; stroke-linejoin:round; stroke-linecap:round; fill:none" d="M 14.9658 843.31C 14.9623 843.31 14.9589 843.31 14.9554 843.31C 14.9495 843.31 14.9437 843.31 14.938 843.311"/>
<path style="stroke:#000000; stroke-width:0.850394; stroke-linejoin:round; stroke-linecap:round; fill:none" d="M 14.938 843.311C 14.9287 843.311 14.9194 843.312 14.9104 843.314"/>
<path style="stroke:#000000; stroke-width:0.850394; stroke-linejoin:round; stroke-linecap:round; fill:none" d="M 14.9104 843.314C 14.9011 843.315 14.8921 843.317 14.8832 843.32"/>
<path style="stroke:#000000; stroke-width:0.850394; stroke-linejoin:round; stroke-linecap:round; fill:none" d="M 14.8832 843.32L 14.8832 843.32"/>
<path style="stroke:#000000; stroke-width:0.850394; stroke-linejoin:round; stroke-linecap:round; fill:none" d="M 14.1741 848.732C 14.1758 848.738 14.1777 848.744 14.1798 848.751"/>
<path style="stroke:#000000; stroke-width:0.850394; stroke-linejoin:round; stroke-linecap:round; fill:none" d="M 14.1798 848.751C 14.1829 848.759 14.1864 848.768 14.1903 848.776"/>
<path style="stroke:#000000; stroke-width:0.850394; stroke-linejoin:round; stroke-linecap:round; fill:none" d="M 14.1903 848.776C 14.1942 848.785 14.1985 848.793 14.2032 848.801"/>
<path style="stroke:#000000; stroke-width:0.850394; stroke-linejoin:round; stroke-linecap:round; fill:none" d="M 14.2032 848.801C 14.2079 848.809 14.2131 848.817 14.2185 848.824"/>
<path style="stroke:#000000; stroke-width:0.850394; stroke-linejoin:round; stroke-linecap:round; fill:none" d="M 14.2185 848.824C 14.2231 848.83 14.2278 848.836 14.2328 848.842"/>
<path style="stroke:#000000; stroke-width:0.850394; stroke-linejoin:round; stroke-linecap:round; fill:none" d="M 14.2328 848.842L 14.2606 848.87"/>
<path style="stroke:#000000; stroke-width:0.850394; stroke-linejoin:round; stroke-linecap:round; fill:none" d="M 14.2606 848.87L 14.7449 849.354"/>
<path style="stroke:#000000; stroke-width:0.850394; stroke-linejoin:round; stroke-linecap:round; fill:none" d="M 14.7449 849.354L 14.7702 849.379"/>
<path style="stroke:#000000; stroke-width:0.850394; stroke-linejoin:round; stroke-linecap:round; fill:none" d="M 14.7702 849.379C 14.776 849.384 14.7821 849.389 14.7883 849.394"/>
<path style="stroke:#000000; stroke-width:0.850394; stroke-linejoin:round; stroke-linecap:round; fill:none" d="M 14.7883 849.394C 14.7957 849.4 14.8034 849.405 14.8114 849.409"/>
<path style="stroke:#000000; stroke-width:0.850394; stroke-linejoin:round; stroke-linecap:round; fill:none" d="M 14.8114 849.409C 14.8194 849.414 14.8275 849.419 14.836 849.423"/>
<path style="stroke:#000000; stroke-width:0.850394; stroke-linejoin:round; stroke-linecap:round; fill:none" d="M 14.836 849.423C 14.8443 849.427 14.8529 849.43 14.8617 849.433"/>
<path style="stroke:#000000; stroke-width:0.850394; stroke-linejoin:round; stroke-linecap:round; fill:none" d="M 14.8617 849.433C 14.8704 849.436 14.8793 849.439 14.8884 849.441"/>
<path style="stroke:#000000; stroke-width:0.850394; stroke-linejoin:round; stroke-linecap:round; fill:none" d="M 14.8884 849.441C 14.8974 849.443 14.9065 849.445 14.9157 849.446"/>
<path style="stroke:#000000; stroke-width:0.850394; stroke-linejoin:round; stroke-linecap:round; fill:none" d="M 14.9157 849.446C 14.9248 849.447 14.9341 849.448 14.9435 849.449"/>
<path style="stroke:#000000; stroke-width:0.850394; stroke-linejoin:round; stroke-linecap:round; fill:none" d="M 14.9435 849.449C 14.947 849.449 14.9507 849.449 14.9543 849.449C 14.96 849.449 14.9657 849.449 14.9713 849.448"/>
<path style="stroke:#000000; stroke-width:0.850394; stroke-linejoin:round; stroke-linecap:round; fill:none" d="M 14.9713 849.448C 14.9806 849.448 14.9898 849.447 14.9989 849.445"/>
<path style="stroke:#000000; stroke-width:0.850394; stroke-linejoin:round; stroke-linecap:round; fill:none" d="M 14.9989 849.445C 15.0081 849.444 15.0172 849.442 15.0261 849.439"/>
<path style="stroke:#000000; stroke-width:0.850394; stroke-linejoin:round; stroke-linecap:round; fill:none" d="M 15.0261 849.439C 15.0325 849.438 15.0388 849.436 15.0449 849.434"/>
<path style="stroke:#000000; stroke-width:0.850394; stroke-linejoin:round; stroke-linecap:round; fill:none" d="M 15.0449 849.434C 15.0538 849.431 15.0624 849.427 15.0708 849.423"/>
<path style="stroke:#000000; stroke-width:0.850394; stroke-linejoin:round; stroke-linecap:round; fill:none" d="M 15.0708 849.423C 15.0792 849.419 15.0874 849.415 15.0954 849.41"/>
<path style="stroke:#000000; stroke-width:0.850394; stroke-linejoin:round; stroke-linecap:round; fill:none" d="M 15.0954 849.41C 15.1034 849.406 15.1112 849.4 15.1186 849.395"/>
<path style="stroke:#000000; stroke-width:0.850394; stroke-linejoin:round; stroke-linecap:round; fill:none" d="M 15.1186 849.395C 15.1261 849.389 15.1333 849.384 15.1402 849.377"/>
<path style="stroke:#000000; stroke-width:0.850394; stroke-linejoin:round; stroke-linecap:round; fill:none" d="M 15.1402 849.377C 15.1471 849.371 15.1537 849.365 15.1599 849.358"/>
<path style="stroke:#000000; stroke-width:0.850394; stroke-linejoin:round; stroke-linecap:round; fill:none" d="M 15.1599 849.358C 15.1662 849.351 15.1721 849.344 15.1776 849.336"/>
<path style="stroke:#000000; stroke-width:0.850394; stroke-linejoin:round; stroke-linecap:round; fill:none" d="M 15.1776 849.336C 15.1831 849.329 15.1883 849.321 15.1931 849.313"/>
<path style="stroke:#000000; stroke-width:0.850394; stroke-linejoin:round; stroke-linecap:round; fill:none" d="M 15.1931 849.313C 15.1978 849.305 15.2022 849.297 15.2061 849.289"/>
<path style="stroke:#000000; stroke-width:0.850394; stroke-linejoin:round; stroke-linecap:round; fill:none" d="M 15.2061 849.289C 15.2101 849.28 15.2136 849.272 15.2167 849.263"/>
<path style="stroke:#000000; stroke-width:0.850394; stroke-linejoin:round; stroke-linecap:round; fill:none" d="M 15.2167 849.263C 15.2168 849.262 15.217 849.262 15.2171 849.261"/>
<path style="stroke:#000000; stroke-width:0.850394; stroke-linejoin:round; stroke-linecap:round; fill:none" d="M 15.2171 849.261L 15.2262 849.227"/>
<path style="stroke:#000000; stroke-width:0.850394; stroke-linejoin:round; stroke-linecap:round; fill:none" d="M 15.2262 849.227L 15.4034 848.566"/>
<path style="stroke:#000000; stroke-width:0.850394; stroke-linejoin:round; stroke-linecap:round; fill:none" d="M 15.4034 848.566L 15.414 848.526"/>
<path style="stroke:#000000; stroke-width:0.850394; stroke-linejoin:round; stroke-linecap:round; fill:none" d="M 15.414 848.526C 15.4152 848.521 15.4161 848.516 15.417 848.511"/>
<path style="stroke:#000000; stroke-width:0.850394; stroke-linejoin:round; stroke-linecap:round; fill:none" d="M 15.417 848.511C 15.4182 848.502 15.419 848.493 15.4194 848.483"/>
<path style="stroke:#000000; stroke-width:0.850394; stroke-linejoin:round; stroke-linecap:round; fill:none" d="M 15.4194 848.483C 15.4195 848.48 15.4196 848.476 15.4196 848.472C 15.4196 848.467 15.4194 848.461 15.4191 848.455"/>
<path style="stroke:#000000; stroke-width:0.850394; stroke-linejoin:round; stroke-linecap:round; fill:none" d="M 15.4191 848.455C 15.4185 848.446 15.4175 848.437 15.416 848.428"/>
<path style="stroke:#000000; stroke-width:0.850394; stroke-linejoin:round; stroke-linecap:round; fill:none" d="M 15.416 848.428C 15.4145 848.418 15.4125 848.409 15.4102 848.4"/>
<path style="stroke:#000000; stroke-width:0.850394; stroke-linejoin:round; stroke-linecap:round; fill:none" d="M 15.4102 848.4C 15.4085 848.394 15.4065 848.388 15.4044 848.382"/>
<path style="stroke:#000000; stroke-width:0.850394; stroke-linejoin:round; stroke-linecap:round; fill:none" d="M 15.4044 848.382C 15.4013 848.373 15.3979 848.364 15.394 848.356"/>
<path style="stroke:#000000; stroke-width:0.850394; stroke-linejoin:round; stroke-linecap:round; fill:none" d="M 15.394 848.356C 15.3901 848.347 15.3858 848.339 15.3811 848.331"/>
<path style="stroke:#000000; stroke-width:0.850394; stroke-linejoin:round; stroke-linecap:round; fill:none" d="M 15.3811 848.331C 15.3763 848.323 15.3712 848.315 15.3657 848.308"/>
<path style="stroke:#000000; stroke-width:0.850394; stroke-linejoin:round; stroke-linecap:round; fill:none" d="M 15.3657 848.308C 15.3602 848.301 15.3544 848.293 15.3482 848.286"/>
<path style="stroke:#000000; stroke-width:0.850394; stroke-linejoin:round; stroke-linecap:round; fill:none" d="M 15.3482 848.286C 15.342 848.28 15.3354 848.273 15.3285 848.267"/>
<path style="stroke:#000000; stroke-width:0.850394; stroke-linejoin:round; stroke-linecap:round; fill:none" d="M 15.3286 848.267C 15.3217 848.26 15.3145 848.255 15.307 848.249"/>
<path style="stroke:#000000; stroke-width:0.850394; stroke-linejoin:round; stroke-linecap:round; fill:none" d="M 15.307 848.249C 15.2996 848.243 15.2919 848.238 15.2839 848.234"/>
<path style="stroke:#000000; stroke-width:0.850394; stroke-linejoin:round; stroke-linecap:round; fill:none" d="M 15.2839 848.234C 15.276 848.229 15.2678 848.224 15.2594 848.22"/>
<path style="stroke:#000000; stroke-width:0.850394; stroke-linejoin:round; stroke-linecap:round; fill:none" d="M 15.2594 848.22C 15.251 848.217 15.2424 848.213 15.2336 848.21"/>
<path style="stroke:#000000; stroke-width:0.850394; stroke-linejoin:round; stroke-linecap:round; fill:none" d="M 15.2336 848.21C 15.2249 848.207 15.216 848.204 15.2069 848.202"/>
<path style="stroke:#000000; stroke-width:0.850394; stroke-linejoin:round; stroke-linecap:round; fill:none" d="M 15.2069 848.202C 15.198 848.2 15.1889 848.198 15.1796 848.197"/>
<path style="stroke:#000000; stroke-width:0.850394; stroke-linejoin:round; stroke-linecap:round; fill:none" d="M 15.1796 848.197C 15.1705 848.196 15.1613 848.195 15.1519 848.194"/>
<path style="stroke:#000000; stroke-width:0.850394; stroke-linejoin:round; stroke-linecap:round; fill:none" d="M 15.1519 848.194C 15.1483 848.194 15.1447 848.194 15.1411 848.194C 15.1354 848.194 15.1297 848.194 15.1241 848.195"/>
<path style="stroke:#000000; stroke-width:0.850394; stroke-linejoin:round; stroke-linecap:round; fill:none" d="M 15.1241 848.195C 15.1147 848.195 15.1055 848.196 15.0964 848.198"/>
<path style="stroke:#000000; stroke-width:0.850394; stroke-linejoin:round; stroke-linecap:round; fill:none" d="M 15.0964 848.198C 15.0872 848.199 15.0781 848.201 15.0692 848.204"/>
<path style="stroke:#000000; stroke-width:0.850394; stroke-linejoin:round; stroke-linecap:round; fill:none" d="M 15.0692 848.204L 14.3709 848.391"/>
<path style="stroke:#000000; stroke-width:0.850394; stroke-linejoin:round; stroke-linecap:round; fill:none" d="M 14.3709 848.391C 14.3646 848.392 14.3583 848.394 14.3521 848.397"/>
<path style="stroke:#000000; stroke-width:0.850394; stroke-linejoin:round; stroke-linecap:round; fill:none" d="M 14.3521 848.397C 14.3433 848.4 14.3347 848.403 14.3263 848.407"/>
<path style="stroke:#000000; stroke-width:0.850394; stroke-linejoin:round; stroke-linecap:round; fill:none" d="M 14.3263 848.407C 14.3179 848.411 14.3096 848.415 14.3017 848.42"/>
<path style="stroke:#000000; stroke-width:0.850394; stroke-linejoin:round; stroke-linecap:round; fill:none" d="M 14.3017 848.42C 14.2936 848.425 14.2859 848.43 14.2784 848.435"/>
<path style="stroke:#000000; stroke-width:0.850394; stroke-linejoin:round; stroke-linecap:round; fill:none" d="M 14.2784 848.435C 14.271 848.441 14.2638 848.447 14.2569 848.453"/>
<path style="stroke:#000000; stroke-width:0.850394; stroke-linejoin:round; stroke-linecap:round; fill:none" d="M 14.2569 848.453C 14.25 848.459 14.2434 848.466 14.2371 848.472"/>
<path style="stroke:#000000; stroke-width:0.850394; stroke-linejoin:round; stroke-linecap:round; fill:none" d="M 14.2371 848.472C 14.2309 848.479 14.225 848.486 14.2195 848.494"/>
<path style="stroke:#000000; stroke-width:0.850394; stroke-linejoin:round; stroke-linecap:round; fill:none" d="M 14.2195 848.494C 14.2139 848.501 14.2088 848.509 14.204 848.517"/>
<path style="stroke:#000000; stroke-width:0.850394; stroke-linejoin:round; stroke-linecap:round; fill:none" d="M 14.204 848.517C 14.1992 848.525 14.1949 848.533 14.1909 848.542"/>
<path style="stroke:#000000; stroke-width:0.850394; stroke-linejoin:round; stroke-linecap:round; fill:none" d="M 14.1909 848.542C 14.187 848.55 14.1835 848.559 14.1804 848.567"/>
<path style="stroke:#000000; stroke-width:0.850394; stroke-linejoin:round; stroke-linecap:round; fill:none" d="M 14.1804 848.567C 14.1773 848.576 14.1747 848.585 14.1725 848.594"/>
<path style="stroke:#000000; stroke-width:0.850394; stroke-linejoin:round; stroke-linecap:round; fill:none" d="M 14.1725 848.594C 14.1703 848.603 14.1686 848.612 14.1673 848.621"/>
<path style="stroke:#000000; stroke-width:0.850394; stroke-linejoin:round; stroke-linecap:round; fill:none" d="M 14.1673 848.621C 14.166 848.63 14.1652 848.64 14.1649 848.649"/>
<path style="stroke:#000000; stroke-width:0.850394; stroke-linejoin:round; stroke-linecap:round; fill:none" d="M 14.1649 848.649C 14.1647 848.653 14.1647 848.656 14.1647 848.659C 14.1647 848.665 14.1648 848.671 14.1652 848.677"/>
<path style="stroke:#000000; stroke-width:0.850394; stroke-linejoin:round; stroke-linecap:round; fill:none" d="M 14.1652 848.677C 14.1658 848.686 14.1668 848.695 14.1683 848.705"/>
<path style="stroke:#000000; stroke-width:0.850394; stroke-linejoin:round; stroke-linecap:round; fill:none" d="M 14.1683 848.705C 14.1697 848.714 14.1717 848.723 14.1741 848.732"/>
<path style="stroke:#000000; stroke-width:0.850394; stroke-linejoin:round; stroke-linecap:round; fill:none" d="M 17.6958 847.02L 17.7156 847.019L 17.7432 847.016L 17.7703 847.009L 17.7967 847.001L 17.8173 846.991L 17.8514 846.972L 18.4446 846.629L 18.4756 846.611L 18.4946 846.598L 18.5155 846.579L 18.5344 846.559L 18.5513 846.537L 18.5658 846.513L 18.5779 846.488L 18.5874 846.462L 18.5943 846.435L 18.5985 846.408L 18.5999 846.38L 18.5992 846.36L 18.5958 846.332L 18.5897 846.305L 18.581 846.279L 18.5696 846.253L 18.5558 846.229L 18.5396 846.207L 18.5212 846.186L 18.5009 846.167L 18.4787 846.15L 18.4774 846.149L 18.4468 846.132L 17.8539 845.789L 17.8185 845.769L 17.8042 845.762L 17.7781 845.752L 17.7511 845.745L 17.7236 845.741L 17.6958 845.74L 17.6761 845.741L 17.6485 845.744L 17.6214 845.75L 17.595 845.759L 17.5696 845.77L 17.5455 845.784L 17.5228 845.8L 17.5019 845.819L 17.483 845.839L 17.4661 845.861L 17.4516 845.885L 17.4395 845.91L 17.43 845.936L 17.423 845.963L 17.4189 845.99L 17.4175 846.018L 17.4175 846.741L 17.4182 846.761L 17.4216 846.788L 17.4277 846.816L 17.4365 846.842L 17.4478 846.867L 17.4616 846.892L 17.4778 846.914L 17.4962 846.935L 17.5165 846.954L 17.5387 846.971L 17.5624 846.985L 17.5875 846.998L 17.6136 847.007L 17.6406 847.014L 17.6681 847.018L 17.6958 847.02L 17.6958 847.02z"/>
<path style="stroke:#000000; stroke-width:0.850394; stroke-linejoin:round; stroke-linecap:round; fill:none" d="M 22.7346 854.241C 22.7279 854.241 22.7214 854.241 22.7148 854.242"/>
<path style="stroke:#000000; stroke-width:0.850394; stroke-linejoin:round; stroke-linecap:round; fill:none" d="M 22.7148 854.242C 22.7055 854.242 22.6963 854.243 22.6872 854.245"/>
<path style="stroke:#000000; stroke-width:0.850394; stroke-linejoin:round; stroke-linecap:round; fill:none" d="M 22.6872 854.245C 22.678 854.247 22.669 854.249 22.6601 854.251"/>
<path style="stroke:#000000; stroke-width:0.850394; stroke-linejoin:round; stroke-linecap:round; fill:none" d="M 22.6601 854.251C 22.6511 854.254 22.6423 854.256 22.6337 854.26"/>
<path style="stroke:#000000; stroke-width:0.850394; stroke-linejoin:round; stroke-linecap:round; fill:none" d="M 22.6337 854.26C 22.6266 854.263 22.6198 854.266 22.613 854.269"/>
<path style="stroke:#000000; stroke-width:0.850394; stroke-linejoin:round; stroke-linecap:round; fill:none" d="M 22.6131 854.269L 22.579 854.289"/>
<path style="stroke:#000000; stroke-width:0.850394; stroke-linejoin:round; stroke-linecap:round; fill:none" d="M 22.579 854.289L 21.9858 854.631"/>
<path style="stroke:#000000; stroke-width:0.850394; stroke-linejoin:round; stroke-linecap:round; fill:none" d="M 21.9858 854.631L 21.9548 854.649"/>
<path style="stroke:#000000; stroke-width:0.850394; stroke-linejoin:round; stroke-linecap:round; fill:none" d="M 21.9548 854.649C 21.9483 854.653 21.942 854.658 21.9358 854.663"/>
<path style="stroke:#000000; stroke-width:0.850394; stroke-linejoin:round; stroke-linecap:round; fill:none" d="M 21.9358 854.663C 21.9286 854.669 21.9216 854.675 21.915 854.681"/>
<path style="stroke:#000000; stroke-width:0.850394; stroke-linejoin:round; stroke-linecap:round; fill:none" d="M 21.915 854.681C 21.9083 854.688 21.902 854.694 21.896 854.701"/>
<path style="stroke:#000000; stroke-width:0.850394; stroke-linejoin:round; stroke-linecap:round; fill:none" d="M 21.896 854.701C 21.89 854.709 21.8844 854.716 21.8791 854.724"/>
<path style="stroke:#000000; stroke-width:0.850394; stroke-linejoin:round; stroke-linecap:round; fill:none" d="M 21.8791 854.724C 21.8739 854.731 21.869 854.739 21.8646 854.747"/>
<path style="stroke:#000000; stroke-width:0.850394; stroke-linejoin:round; stroke-linecap:round; fill:none" d="M 21.8646 854.747C 21.8601 854.755 21.8561 854.764 21.8524 854.772"/>
<path style="stroke:#000000; stroke-width:0.850394; stroke-linejoin:round; stroke-linecap:round; fill:none" d="M 21.8524 854.772C 21.8488 854.781 21.8456 854.79 21.8429 854.799"/>
<path style="stroke:#000000; stroke-width:0.850394; stroke-linejoin:round; stroke-linecap:round; fill:none" d="M 21.8429 854.799C 21.8402 854.807 21.8379 854.816 21.836 854.826"/>
<path style="stroke:#000000; stroke-width:0.850394; stroke-linejoin:round; stroke-linecap:round; fill:none" d="M 21.836 854.826C 21.8342 854.834 21.8328 854.844 21.8319 854.853"/>
<path style="stroke:#000000; stroke-width:0.850394; stroke-linejoin:round; stroke-linecap:round; fill:none" d="M 21.8319 854.853C 21.831 854.862 21.8305 854.871 21.8305 854.881"/>
<path style="stroke:#000000; stroke-width:0.850394; stroke-linejoin:round; stroke-linecap:round; fill:none" d="M 21.8305 854.881C 21.8305 854.887 21.8308 854.894 21.8312 854.9"/>
<path style="stroke:#000000; stroke-width:0.850394; stroke-linejoin:round; stroke-linecap:round; fill:none" d="M 21.8312 854.9C 21.8319 854.91 21.833 854.919 21.8345 854.928"/>
<path style="stroke:#000000; stroke-width:0.850394; stroke-linejoin:round; stroke-linecap:round; fill:none" d="M 21.8345 854.928C 21.8361 854.937 21.8381 854.946 21.8406 854.955"/>
<path style="stroke:#000000; stroke-width:0.850394; stroke-linejoin:round; stroke-linecap:round; fill:none" d="M 21.8406 854.955C 21.8431 854.964 21.846 854.973 21.8494 854.982"/>
<path style="stroke:#000000; stroke-width:0.850394; stroke-linejoin:round; stroke-linecap:round; fill:none" d="M 21.8494 854.982C 21.8528 854.99 21.8566 854.999 21.8608 855.007"/>
<path style="stroke:#000000; stroke-width:0.850394; stroke-linejoin:round; stroke-linecap:round; fill:none" d="M 21.8608 855.007C 21.865 855.015 21.8696 855.023 21.8746 855.031"/>
<path style="stroke:#000000; stroke-width:0.850394; stroke-linejoin:round; stroke-linecap:round; fill:none" d="M 21.8746 855.031C 21.8797 855.039 21.8851 855.047 21.8909 855.054"/>
<path style="stroke:#000000; stroke-width:0.850394; stroke-linejoin:round; stroke-linecap:round; fill:none" d="M 21.8909 855.054C 21.8967 855.061 21.9028 855.068 21.9092 855.075"/>
<path style="stroke:#000000; stroke-width:0.850394; stroke-linejoin:round; stroke-linecap:round; fill:none" d="M 21.9092 855.075C 21.9157 855.081 21.9225 855.088 21.9296 855.094"/>
<path style="stroke:#000000; stroke-width:0.850394; stroke-linejoin:round; stroke-linecap:round; fill:none" d="M 21.9296 855.094C 21.9367 855.1 21.944 855.105 21.9517 855.11"/>
<path style="stroke:#000000; stroke-width:0.850394; stroke-linejoin:round; stroke-linecap:round; fill:none" d="M 21.9517 855.11C 21.9521 855.111 21.9526 855.111 21.953 855.111"/>
<path style="stroke:#000000; stroke-width:0.850394; stroke-linejoin:round; stroke-linecap:round; fill:none" d="M 21.953 855.111L 21.9836 855.129"/>
<path style="stroke:#000000; stroke-width:0.850394; stroke-linejoin:round; stroke-linecap:round; fill:none" d="M 21.9836 855.129L 22.5765 855.471"/>
<path style="stroke:#000000; stroke-width:0.850394; stroke-linejoin:round; stroke-linecap:round; fill:none" d="M 22.5765 855.471L 22.6119 855.492"/>
<path style="stroke:#000000; stroke-width:0.850394; stroke-linejoin:round; stroke-linecap:round; fill:none" d="M 22.6119 855.492C 22.6166 855.494 22.6213 855.496 22.6262 855.499"/>
<path style="stroke:#000000; stroke-width:0.850394; stroke-linejoin:round; stroke-linecap:round; fill:none" d="M 22.6262 855.499C 22.6347 855.502 22.6434 855.505 22.6523 855.508"/>
<path style="stroke:#000000; stroke-width:0.850394; stroke-linejoin:round; stroke-linecap:round; fill:none" d="M 22.6523 855.508C 22.6611 855.511 22.6701 855.513 22.6793 855.515"/>
<path style="stroke:#000000; stroke-width:0.850394; stroke-linejoin:round; stroke-linecap:round; fill:none" d="M 22.6793 855.515C 22.6883 855.517 22.6974 855.518 22.7068 855.519"/>
<path style="stroke:#000000; stroke-width:0.850394; stroke-linejoin:round; stroke-linecap:round; fill:none" d="M 22.7068 855.519C 22.7159 855.52 22.7252 855.521 22.7346 855.521"/>
<path style="stroke:#000000; stroke-width:0.850394; stroke-linejoin:round; stroke-linecap:round; fill:none" d="M 22.7346 855.521C 22.7412 855.521 22.7478 855.52 22.7543 855.52"/>
<path style="stroke:#000000; stroke-width:0.850394; stroke-linejoin:round; stroke-linecap:round; fill:none" d="M 22.7543 855.52C 22.7636 855.519 22.7728 855.518 22.7819 855.517"/>
<path style="stroke:#000000; stroke-width:0.850394; stroke-linejoin:round; stroke-linecap:round; fill:none" d="M 22.7819 855.517C 22.7911 855.515 22.8002 855.513 22.809 855.51"/>
<path style="stroke:#000000; stroke-width:0.850394; stroke-linejoin:round; stroke-linecap:round; fill:none" d="M 22.8091 855.51C 22.818 855.508 22.8268 855.505 22.8354 855.502"/>
<path style="stroke:#000000; stroke-width:0.850394; stroke-linejoin:round; stroke-linecap:round; fill:none" d="M 22.8354 855.502C 22.8441 855.498 22.8526 855.495 22.8608 855.49"/>
<path style="stroke:#000000; stroke-width:0.850394; stroke-linejoin:round; stroke-linecap:round; fill:none" d="M 22.8608 855.49C 22.8691 855.486 22.8771 855.481 22.8849 855.476"/>
<path style="stroke:#000000; stroke-width:0.850394; stroke-linejoin:round; stroke-linecap:round; fill:none" d="M 22.8849 855.476C 22.8928 855.471 22.9003 855.466 22.9076 855.46"/>
<path style="stroke:#000000; stroke-width:0.850394; stroke-linejoin:round; stroke-linecap:round; fill:none" d="M 22.9076 855.46C 22.9148 855.454 22.9218 855.448 22.9284 855.442"/>
<path style="stroke:#000000; stroke-width:0.850394; stroke-linejoin:round; stroke-linecap:round; fill:none" d="M 22.9284 855.442C 22.9351 855.435 22.9414 855.429 22.9474 855.422"/>
<path style="stroke:#000000; stroke-width:0.850394; stroke-linejoin:round; stroke-linecap:round; fill:none" d="M 22.9474 855.422C 22.9534 855.414 22.959 855.407 22.9643 855.399"/>
<path style="stroke:#000000; stroke-width:0.850394; stroke-linejoin:round; stroke-linecap:round; fill:none" d="M 22.9643 855.399C 22.9695 855.392 22.9744 855.384 22.9788 855.376"/>
<path style="stroke:#000000; stroke-width:0.850394; stroke-linejoin:round; stroke-linecap:round; fill:none" d="M 22.9788 855.376C 22.9833 855.368 22.9873 855.359 22.991 855.351"/>
<path style="stroke:#000000; stroke-width:0.850394; stroke-linejoin:round; stroke-linecap:round; fill:none" d="M 22.991 855.351C 22.9946 855.342 22.9978 855.333 23.0005 855.324"/>
<path style="stroke:#000000; stroke-width:0.850394; stroke-linejoin:round; stroke-linecap:round; fill:none" d="M 23.0005 855.324C 23.0032 855.316 23.0055 855.307 23.0074 855.298"/>
<path style="stroke:#000000; stroke-width:0.850394; stroke-linejoin:round; stroke-linecap:round; fill:none" d="M 23.0074 855.298C 23.0092 855.289 23.0106 855.279 23.0115 855.27"/>
<path style="stroke:#000000; stroke-width:0.850394; stroke-linejoin:round; stroke-linecap:round; fill:none" d="M 23.0115 855.27C 23.0124 855.261 23.0129 855.252 23.0129 855.242"/>
<path style="stroke:#000000; stroke-width:0.850394; stroke-linejoin:round; stroke-linecap:round; fill:none" d="M 23.0129 855.242L 23.0129 854.519"/>
<path style="stroke:#000000; stroke-width:0.850394; stroke-linejoin:round; stroke-linecap:round; fill:none" d="M 23.0129 854.519C 23.0129 854.513 23.0126 854.506 23.0122 854.5"/>
<path style="stroke:#000000; stroke-width:0.850394; stroke-linejoin:round; stroke-linecap:round; fill:none" d="M 23.0122 854.5C 23.0115 854.49 23.0104 854.481 23.0089 854.472"/>
<path style="stroke:#000000; stroke-width:0.850394; stroke-linejoin:round; stroke-linecap:round; fill:none" d="M 23.0089 854.472C 23.0073 854.463 23.0053 854.454 23.0028 854.445"/>
<path style="stroke:#000000; stroke-width:0.850394; stroke-linejoin:round; stroke-linecap:round; fill:none" d="M 23.0028 854.445C 23.0003 854.436 22.9973 854.427 22.994 854.418"/>
<path style="stroke:#000000; stroke-width:0.850394; stroke-linejoin:round; stroke-linecap:round; fill:none" d="M 22.994 854.418C 22.9906 854.41 22.9868 854.401 22.9826 854.393"/>
<path style="stroke:#000000; stroke-width:0.850394; stroke-linejoin:round; stroke-linecap:round; fill:none" d="M 22.9826 854.393C 22.9784 854.385 22.9738 854.377 22.9688 854.369"/>
<path style="stroke:#000000; stroke-width:0.850394; stroke-linejoin:round; stroke-linecap:round; fill:none" d="M 22.9688 854.369C 22.9637 854.361 22.9583 854.354 22.9525 854.346"/>
<path style="stroke:#000000; stroke-width:0.850394; stroke-linejoin:round; stroke-linecap:round; fill:none" d="M 22.9525 854.346C 22.9468 854.339 22.9406 854.332 22.9342 854.325"/>
<path style="stroke:#000000; stroke-width:0.850394; stroke-linejoin:round; stroke-linecap:round; fill:none" d="M 22.9342 854.325C 22.9277 854.319 22.9209 854.312 22.9138 854.306"/>
<path style="stroke:#000000; stroke-width:0.850394; stroke-linejoin:round; stroke-linecap:round; fill:none" d="M 22.9138 854.306C 22.9067 854.3 22.8994 854.295 22.8917 854.29"/>
<path style="stroke:#000000; stroke-width:0.850394; stroke-linejoin:round; stroke-linecap:round; fill:none" d="M 22.8917 854.29C 22.8841 854.284 22.8761 854.279 22.868 854.275"/>
<path style="stroke:#000000; stroke-width:0.850394; stroke-linejoin:round; stroke-linecap:round; fill:none" d="M 22.868 854.275C 22.8599 854.271 22.8515 854.267 22.8429 854.263"/>
<path style="stroke:#000000; stroke-width:0.850394; stroke-linejoin:round; stroke-linecap:round; fill:none" d="M 22.8429 854.263C 22.8344 854.259 22.8257 854.256 22.8168 854.253"/>
<path style="stroke:#000000; stroke-width:0.850394; stroke-linejoin:round; stroke-linecap:round; fill:none" d="M 22.8168 854.253C 22.808 854.251 22.799 854.248 22.7898 854.247"/>
<path style="stroke:#000000; stroke-width:0.850394; stroke-linejoin:round; stroke-linecap:round; fill:none" d="M 22.7898 854.247C 22.7808 854.245 22.7717 854.243 22.7623 854.242"/>
<path style="stroke:#000000; stroke-width:0.850394; stroke-linejoin:round; stroke-linecap:round; fill:none" d="M 22.7624 854.242C 22.7532 854.241 22.7439 854.241 22.7346 854.241"/>
<path style="stroke:#000000; stroke-width:0.850394; stroke-linejoin:round; stroke-linecap:round; fill:none" d="M 14.8832 851.821L 14.8643 851.827L 14.8385 851.837L 14.8139 851.85L 14.7906 851.865L 14.7731 851.879L 14.7453 851.907L 14.261 852.392L 14.2357 852.417L 14.2208 852.435L 14.2054 852.458L 14.1923 852.483L 14.1818 852.508L 14.1739 852.535L 14.1687 852.562L 14.1663 852.59L 14.1666 852.618L 14.1697 852.646L 14.1755 852.673L 14.1813 852.692L 14.1917 852.717L 14.2046 852.742L 14.2199 852.765L 14.2374 852.787L 14.2571 852.807L 14.2786 852.824L 14.3017 852.84L 14.3263 852.853L 14.352 852.863L 14.3535 852.864L 14.3876 852.873L 15.049 853.05L 15.0884 853.061L 15.104 853.064L 15.1317 853.066L 15.1595 853.066L 15.1871 853.063L 15.2144 853.057L 15.2332 853.051L 15.259 853.041L 15.2837 853.028L 15.3069 853.012L 15.3284 852.995L 15.3482 852.975L 15.3659 852.954L 15.3813 852.931L 15.3944 852.906L 15.4049 852.88L 15.4128 852.854L 15.418 852.826L 15.4204 852.799L 15.4201 852.771L 15.417 852.743L 15.4112 852.716L 15.224 852.018L 15.2183 851.999L 15.2079 851.973L 15.195 851.948L 15.1796 851.925L 15.1621 851.904L 15.1425 851.884L 15.121 851.866L 15.0979 851.851L 15.0733 851.838L 15.0475 851.827L 15.0209 851.819L 14.9935 851.814L 14.9658 851.812L 14.938 851.812L 14.9104 851.815L 14.8832 851.821L 14.8832 851.821z"/>
<path style="stroke:#000000; stroke-width:0.850394; stroke-linejoin:round; stroke-linecap:round; fill:none" d="M 14.1741 857.233L 14.1799 857.252L 14.1903 857.277L 14.2032 857.302L 14.2185 857.325L 14.2328 857.343L 14.2606 857.371L 14.7449 857.855L 14.7702 857.88L 14.7883 857.895L 14.8114 857.91L 14.836 857.924L 14.8617 857.934L 14.8884 857.942L 14.9158 857.947L 14.9435 857.95L 14.9713 857.949L 14.9989 857.946L 15.0261 857.94L 15.0449 857.935L 15.0708 857.924L 15.0954 857.911L 15.1186 857.896L 15.1402 857.878L 15.16 857.859L 15.1776 857.837L 15.1931 857.814L 15.2061 857.79L 15.2166 857.764L 15.2171 857.762L 15.2262 857.728L 15.4034 857.067L 15.414 857.027L 15.417 857.012L 15.4194 856.984L 15.4191 856.956L 15.4159 856.929L 15.4101 856.901L 15.4043 856.883L 15.3939 856.857L 15.381 856.832L 15.3658 856.809L 15.3482 856.787L 15.3286 856.768L 15.3071 856.75L 15.2839 856.735L 15.2594 856.721L 15.2336 856.711L 15.2069 856.703L 15.1796 856.698L 15.1519 856.695L 15.1241 856.696L 15.0964 856.699L 15.0692 856.705L 14.3709 856.892L 14.3521 856.898L 14.3263 856.908L 14.3017 856.921L 14.2784 856.936L 14.2568 856.954L 14.2371 856.973L 14.2194 856.995L 14.204 857.018L 14.191 857.043L 14.1804 857.068L 14.1725 857.095L 14.1673 857.122L 14.1649 857.15L 14.1652 857.178L 14.1683 857.206L 14.1741 857.233L 14.1741 857.233z"/>
<path style="stroke:#000000; stroke-width:0.850394; stroke-linejoin:round; stroke-linecap:round; fill:none" d="M 17.6958 855.521C 17.7025 855.521 17.709 855.52 17.7156 855.52"/>
<path style="stroke:#000000; stroke-width:0.850394; stroke-linejoin:round; stroke-linecap:round; fill:none" d="M 17.7156 855.52C 17.7249 855.519 17.7341 855.518 17.7432 855.517"/>
<path style="stroke:#000000; stroke-width:0.850394; stroke-linejoin:round; stroke-linecap:round; fill:none" d="M 17.7432 855.517C 17.7524 855.515 17.7614 855.513 17.7703 855.51"/>
<path style="stroke:#000000; stroke-width:0.850394; stroke-linejoin:round; stroke-linecap:round; fill:none" d="M 17.7703 855.51C 17.7793 855.508 17.7881 855.505 17.7967 855.502"/>
<path style="stroke:#000000; stroke-width:0.850394; stroke-linejoin:round; stroke-linecap:round; fill:none" d="M 17.7967 855.502C 17.8037 855.499 17.8106 855.496 17.8174 855.492"/>
<path style="stroke:#000000; stroke-width:0.850394; stroke-linejoin:round; stroke-linecap:round; fill:none" d="M 17.8173 855.492L 17.8514 855.473"/>
<path style="stroke:#000000; stroke-width:0.850394; stroke-linejoin:round; stroke-linecap:round; fill:none" d="M 17.8514 855.473L 18.4446 855.13"/>
<path style="stroke:#000000; stroke-width:0.850394; stroke-linejoin:round; stroke-linecap:round; fill:none" d="M 18.4446 855.13L 18.4756 855.112"/>
<path style="stroke:#000000; stroke-width:0.850394; stroke-linejoin:round; stroke-linecap:round; fill:none" d="M 18.4756 855.112C 18.4821 855.108 18.4884 855.104 18.4946 855.099"/>
<path style="stroke:#000000; stroke-width:0.850394; stroke-linejoin:round; stroke-linecap:round; fill:none" d="M 18.4946 855.099C 18.5018 855.093 18.5088 855.087 18.5154 855.08"/>
<path style="stroke:#000000; stroke-width:0.850394; stroke-linejoin:round; stroke-linecap:round; fill:none" d="M 18.5154 855.08C 18.5221 855.074 18.5284 855.067 18.5344 855.06"/>
<path style="stroke:#000000; stroke-width:0.850394; stroke-linejoin:round; stroke-linecap:round; fill:none" d="M 18.5344 855.06C 18.5404 855.053 18.546 855.046 18.5513 855.038"/>
<path style="stroke:#000000; stroke-width:0.850394; stroke-linejoin:round; stroke-linecap:round; fill:none" d="M 18.5513 855.038C 18.5565 855.03 18.5614 855.022 18.5658 855.014"/>
<path style="stroke:#000000; stroke-width:0.850394; stroke-linejoin:round; stroke-linecap:round; fill:none" d="M 18.5658 855.014C 18.5703 855.006 18.5743 854.998 18.578 854.989"/>
<path style="stroke:#000000; stroke-width:0.850394; stroke-linejoin:round; stroke-linecap:round; fill:none" d="M 18.578 854.989C 18.5816 854.981 18.5847 854.972 18.5875 854.963"/>
<path style="stroke:#000000; stroke-width:0.850394; stroke-linejoin:round; stroke-linecap:round; fill:none" d="M 18.5875 854.963C 18.5902 854.954 18.5925 854.945 18.5944 854.936"/>
<path style="stroke:#000000; stroke-width:0.850394; stroke-linejoin:round; stroke-linecap:round; fill:none" d="M 18.5944 854.936C 18.5962 854.927 18.5976 854.918 18.5985 854.909"/>
<path style="stroke:#000000; stroke-width:0.850394; stroke-linejoin:round; stroke-linecap:round; fill:none" d="M 18.5985 854.909C 18.5994 854.899 18.5999 854.89 18.5999 854.881"/>
<path style="stroke:#000000; stroke-width:0.850394; stroke-linejoin:round; stroke-linecap:round; fill:none" d="M 18.5999 854.881C 18.5999 854.874 18.5996 854.868 18.5992 854.861"/>
<path style="stroke:#000000; stroke-width:0.850394; stroke-linejoin:round; stroke-linecap:round; fill:none" d="M 18.5992 854.861C 18.5985 854.852 18.5974 854.842 18.5959 854.833"/>
<path style="stroke:#000000; stroke-width:0.850394; stroke-linejoin:round; stroke-linecap:round; fill:none" d="M 18.5959 854.833C 18.5943 854.824 18.5922 854.815 18.5898 854.806"/>
<path style="stroke:#000000; stroke-width:0.850394; stroke-linejoin:round; stroke-linecap:round; fill:none" d="M 18.5898 854.806C 18.5873 854.797 18.5844 854.788 18.581 854.78"/>
<path style="stroke:#000000; stroke-width:0.850394; stroke-linejoin:round; stroke-linecap:round; fill:none" d="M 18.581 854.78C 18.5776 854.771 18.5738 854.763 18.5696 854.754"/>
<path style="stroke:#000000; stroke-width:0.850394; stroke-linejoin:round; stroke-linecap:round; fill:none" d="M 18.5696 854.754C 18.5654 854.746 18.5608 854.738 18.5557 854.73"/>
<path style="stroke:#000000; stroke-width:0.850394; stroke-linejoin:round; stroke-linecap:round; fill:none" d="M 18.5558 854.73C 18.5507 854.723 18.5453 854.715 18.5395 854.708"/>
<path style="stroke:#000000; stroke-width:0.850394; stroke-linejoin:round; stroke-linecap:round; fill:none" d="M 18.5395 854.708C 18.5337 854.701 18.5276 854.693 18.5212 854.687"/>
<path style="stroke:#000000; stroke-width:0.850394; stroke-linejoin:round; stroke-linecap:round; fill:none" d="M 18.5212 854.687C 18.5147 854.68 18.5079 854.674 18.5008 854.668"/>
<path style="stroke:#000000; stroke-width:0.850394; stroke-linejoin:round; stroke-linecap:round; fill:none" d="M 18.5008 854.668C 18.4937 854.662 18.4864 854.656 18.4787 854.651"/>
<path style="stroke:#000000; stroke-width:0.850394; stroke-linejoin:round; stroke-linecap:round; fill:none" d="M 18.4787 854.651C 18.4782 854.651 18.4778 854.65 18.4774 854.65"/>
<path style="stroke:#000000; stroke-width:0.850394; stroke-linejoin:round; stroke-linecap:round; fill:none" d="M 18.4774 854.65L 18.4468 854.633"/>
<path style="stroke:#000000; stroke-width:0.850394; stroke-linejoin:round; stroke-linecap:round; fill:none" d="M 18.4468 854.633L 17.8539 854.29"/>
<path style="stroke:#000000; stroke-width:0.850394; stroke-linejoin:round; stroke-linecap:round; fill:none" d="M 17.8539 854.29L 17.8185 854.27"/>
<path style="stroke:#000000; stroke-width:0.850394; stroke-linejoin:round; stroke-linecap:round; fill:none" d="M 17.8185 854.27C 17.8138 854.267 17.8091 854.265 17.8042 854.263"/>
<path style="stroke:#000000; stroke-width:0.850394; stroke-linejoin:round; stroke-linecap:round; fill:none" d="M 17.8042 854.263C 17.7957 854.259 17.787 854.256 17.7781 854.253"/>
<path style="stroke:#000000; stroke-width:0.850394; stroke-linejoin:round; stroke-linecap:round; fill:none" d="M 17.7781 854.253C 17.7693 854.251 17.7603 854.248 17.7511 854.246"/>
<path style="stroke:#000000; stroke-width:0.850394; stroke-linejoin:round; stroke-linecap:round; fill:none" d="M 17.7511 854.246C 17.7421 854.245 17.7329 854.243 17.7236 854.242"/>
<path style="stroke:#000000; stroke-width:0.850394; stroke-linejoin:round; stroke-linecap:round; fill:none" d="M 17.7236 854.242C 17.7145 854.241 17.7052 854.241 17.6958 854.241"/>
<path style="stroke:#000000; stroke-width:0.850394; stroke-linejoin:round; stroke-linecap:round; fill:none" d="M 17.6958 854.241C 17.6892 854.241 17.6826 854.241 17.6761 854.242"/>
<path style="stroke:#000000; stroke-width:0.850394; stroke-linejoin:round; stroke-linecap:round; fill:none" d="M 17.6761 854.242C 17.6668 854.242 17.6576 854.243 17.6485 854.245"/>
<path style="stroke:#000000; stroke-width:0.850394; stroke-linejoin:round; stroke-linecap:round; fill:none" d="M 17.6485 854.245C 17.6393 854.247 17.6302 854.249 17.6213 854.251"/>
<path style="stroke:#000000; stroke-width:0.850394; stroke-linejoin:round; stroke-linecap:round; fill:none" d="M 17.6213 854.251C 17.6124 854.254 17.6036 854.256 17.595 854.26"/>
<path style="stroke:#000000; stroke-width:0.850394; stroke-linejoin:round; stroke-linecap:round; fill:none" d="M 17.595 854.26C 17.5863 854.263 17.5778 854.267 17.5696 854.271"/>
<path style="stroke:#000000; stroke-width:0.850394; stroke-linejoin:round; stroke-linecap:round; fill:none" d="M 17.5696 854.271C 17.5613 854.275 17.5533 854.28 17.5455 854.285"/>
<path style="stroke:#000000; stroke-width:0.850394; stroke-linejoin:round; stroke-linecap:round; fill:none" d="M 17.5455 854.285C 17.5376 854.29 17.5301 854.296 17.5228 854.301"/>
<path style="stroke:#000000; stroke-width:0.850394; stroke-linejoin:round; stroke-linecap:round; fill:none" d="M 17.5228 854.301C 17.5156 854.307 17.5086 854.313 17.502 854.32"/>
<path style="stroke:#000000; stroke-width:0.850394; stroke-linejoin:round; stroke-linecap:round; fill:none" d="M 17.502 854.32C 17.4953 854.326 17.489 854.333 17.483 854.34"/>
<path style="stroke:#000000; stroke-width:0.850394; stroke-linejoin:round; stroke-linecap:round; fill:none" d="M 17.483 854.34C 17.477 854.347 17.4714 854.354 17.4661 854.362"/>
<path style="stroke:#000000; stroke-width:0.850394; stroke-linejoin:round; stroke-linecap:round; fill:none" d="M 17.4661 854.362C 17.4609 854.37 17.456 854.378 17.4516 854.386"/>
<path style="stroke:#000000; stroke-width:0.850394; stroke-linejoin:round; stroke-linecap:round; fill:none" d="M 17.4516 854.386C 17.4471 854.394 17.4431 854.402 17.4394 854.411"/>
<path style="stroke:#000000; stroke-width:0.850394; stroke-linejoin:round; stroke-linecap:round; fill:none" d="M 17.4394 854.411C 17.4358 854.419 17.4326 854.428 17.4299 854.437"/>
<path style="stroke:#000000; stroke-width:0.850394; stroke-linejoin:round; stroke-linecap:round; fill:none" d="M 17.4299 854.437C 17.4272 854.446 17.4249 854.455 17.423 854.464"/>
<path style="stroke:#000000; stroke-width:0.850394; stroke-linejoin:round; stroke-linecap:round; fill:none" d="M 17.423 854.464C 17.4212 854.473 17.4198 854.482 17.4189 854.491"/>
<path style="stroke:#000000; stroke-width:0.850394; stroke-linejoin:round; stroke-linecap:round; fill:none" d="M 17.4189 854.491C 17.418 854.501 17.4175 854.51 17.4175 854.519"/>
<path style="stroke:#000000; stroke-width:0.850394; stroke-linejoin:round; stroke-linecap:round; fill:none" d="M 17.4175 854.519L 17.4175 855.242"/>
<path style="stroke:#000000; stroke-width:0.850394; stroke-linejoin:round; stroke-linecap:round; fill:none" d="M 17.4175 855.242C 17.4175 855.249 17.4178 855.255 17.4182 855.262"/>
<path style="stroke:#000000; stroke-width:0.850394; stroke-linejoin:round; stroke-linecap:round; fill:none" d="M 17.4182 855.262C 17.4189 855.271 17.42 855.28 17.4215 855.289"/>
<path style="stroke:#000000; stroke-width:0.850394; stroke-linejoin:round; stroke-linecap:round; fill:none" d="M 17.4215 855.289C 17.4231 855.299 17.4251 855.308 17.4276 855.317"/>
<path style="stroke:#000000; stroke-width:0.850394; stroke-linejoin:round; stroke-linecap:round; fill:none" d="M 17.4276 855.317C 17.4301 855.326 17.4331 855.334 17.4364 855.343"/>
<path style="stroke:#000000; stroke-width:0.850394; stroke-linejoin:round; stroke-linecap:round; fill:none" d="M 17.4364 855.343C 17.4398 855.352 17.4436 855.36 17.4478 855.368"/>
<path style="stroke:#000000; stroke-width:0.850394; stroke-linejoin:round; stroke-linecap:round; fill:none" d="M 17.4478 855.368C 17.452 855.377 17.4566 855.385 17.4616 855.393"/>
<path style="stroke:#000000; stroke-width:0.850394; stroke-linejoin:round; stroke-linecap:round; fill:none" d="M 17.4616 855.393C 17.4667 855.4 17.4721 855.408 17.4779 855.415"/>
<path style="stroke:#000000; stroke-width:0.850394; stroke-linejoin:round; stroke-linecap:round; fill:none" d="M 17.4779 855.415C 17.4836 855.422 17.4898 855.429 17.4962 855.436"/>
<path style="stroke:#000000; stroke-width:0.850394; stroke-linejoin:round; stroke-linecap:round; fill:none" d="M 17.4962 855.436C 17.5027 855.443 17.5095 855.449 17.5166 855.455"/>
<path style="stroke:#000000; stroke-width:0.850394; stroke-linejoin:round; stroke-linecap:round; fill:none" d="M 17.5166 855.455C 17.5237 855.461 17.531 855.467 17.5387 855.472"/>
<path style="stroke:#000000; stroke-width:0.850394; stroke-linejoin:round; stroke-linecap:round; fill:none" d="M 17.5387 855.472C 17.5463 855.477 17.5543 855.482 17.5624 855.486"/>
<path style="stroke:#000000; stroke-width:0.850394; stroke-linejoin:round; stroke-linecap:round; fill:none" d="M 17.5624 855.486C 17.5705 855.491 17.5789 855.495 17.5875 855.499"/>
<path style="stroke:#000000; stroke-width:0.850394; stroke-linejoin:round; stroke-linecap:round; fill:none" d="M 17.5875 855.499C 17.596 855.502 17.6047 855.505 17.6136 855.508"/>
<path style="stroke:#000000; stroke-width:0.850394; stroke-linejoin:round; stroke-linecap:round; fill:none" d="M 17.6136 855.508C 17.6224 855.511 17.6314 855.513 17.6406 855.515"/>
<path style="stroke:#000000; stroke-width:0.850394; stroke-linejoin:round; stroke-linecap:round; fill:none" d="M 17.6406 855.515C 17.6496 855.517 17.6587 855.518 17.6681 855.519"/>
<path style="stroke:#000000; stroke-width:0.850394; stroke-linejoin:round; stroke-linecap:round; fill:none" d="M 17.668 855.519C 17.6772 855.52 17.6865 855.521 17.6958 855.521"/>
<path style="stroke:#000000; stroke-width:0.850394; stroke-linejoin:round; stroke-linecap:round; fill:none" d="M 2.00109 857.363L 2.3826 857.745"/>
<path style="stroke:#000000; stroke-width:0.850394; stroke-linejoin:round; stroke-linecap:round; fill:none" d="M 1.75071 857.995L 2.63298 857.113"/>
<path style="stroke:#000000; stroke-width:0.850394; stroke-linejoin:round; stroke-linecap:round; fill:none" d="M 2.19185 857.554L 2.19185 859.131"/>
<path style="stroke:#000000; stroke-width:0.850394; stroke-linejoin:round; stroke-linecap:round; fill:none" d="M 2.44185 859.131L 1.94185 859.131L 1.94185 858.661L 2.44185 858.661L 2.44185 859.131z"/>
<path style="stroke:#000000; stroke-width:0.850394; stroke-linejoin:round; stroke-linecap:round; fill:none" d="M 2.44185 851.1L 1.94185 851.1"/>
<path style="stroke:#000000; stroke-width:0.850394; stroke-linejoin:round; stroke-linecap:round; fill:none" d="M 2.44185 850.63L 2.44185 851.1"/>
<path style="stroke:#000000; stroke-width:0.850394; stroke-linejoin:round; stroke-linecap:round; fill:none" d="M 1.94185 851.1L 1.94185 850.63"/>
<path style="stroke:#000000; stroke-width:0.850394; stroke-linejoin:round; stroke-linecap:round; fill:none" d="M 2.44185 850.63L 2.44185 850.16"/>
<path style="stroke:#000000; stroke-width:0.850394; stroke-linejoin:round; stroke-linecap:round; fill:none" d="M 2.44185 850.16L 1.94185 850.16"/>
<path style="stroke:#000000; stroke-width:0.850394; stroke-linejoin:round; stroke-linecap:round; fill:none" d="M 1.94185 850.16L 1.94185 850.63"/>
<path style="stroke:#000000; stroke-width:0.850394; stroke-linejoin:round; stroke-linecap:round; fill:none" d="M 2.44185 842.128L 2.44185 842.598"/>
<path style="stroke:#000000; stroke-width:0.850394; stroke-linejoin:round; stroke-linecap:round; fill:none" d="M 2.44185 842.598L 1.94185 842.598"/>
<path style="stroke:#000000; stroke-width:0.850394; stroke-linejoin:round; stroke-linecap:round; fill:none" d="M 1.94185 842.598L 1.94185 842.128"/>
<path style="stroke:#000000; stroke-width:0.850394; stroke-linejoin:round; stroke-linecap:round; fill:none" d="M 9.83561 859.131L 9.83561 858.661"/>
<path style="stroke:#000000; stroke-width:0.850394; stroke-linejoin:round; stroke-linecap:round; fill:none" d="M 9.83561 858.661L 10.3356 858.661"/>
<path style="stroke:#000000; stroke-width:0.850394; stroke-linejoin:round; stroke-linecap:round; fill:none" d="M 10.3356 858.661L 10.3356 859.131"/>
<path style="stroke:#000000; stroke-width:0.850394; stroke-linejoin:round; stroke-linecap:round; fill:none" d="M 9.83561 850.63L 9.83561 851.1"/>
<path style="stroke:#000000; stroke-width:0.850394; stroke-linejoin:round; stroke-linecap:round; fill:none" d="M 9.83561 851.1L 10.3356 851.1"/>
<path style="stroke:#000000; stroke-width:0.850394; stroke-linejoin:round; stroke-linecap:round; fill:none" d="M 10.3356 851.1L 10.3356 850.63"/>
<path style="stroke:#000000; stroke-width:0.850394; stroke-linejoin:round; stroke-linecap:round; fill:none" d="M 9.83561 850.63L 9.83561 850.16"/>
<path style="stroke:#000000; stroke-width:0.850394; stroke-linejoin:round; stroke-linecap:round; fill:none" d="M 9.83561 850.16L 10.3356 850.16"/>
<path style="stroke:#000000; stroke-width:0.850394; stroke-linejoin:round; stroke-linecap:round; fill:none" d="M 10.3356 850.16L 10.3356 850.63"/>
<path style="stroke:#000000; stroke-width:0.850394; stroke-linejoin:round; stroke-linecap:round; fill:none" d="M 9.83561 842.598L 10.3356 842.598"/>
<path style="stroke:#000000; stroke-width:0.850394; stroke-linejoin:round; stroke-linecap:round; fill:none" d="M 10.3356 842.598L 10.3356 842.128"/>
<path style="stroke:#000000; stroke-width:0.850394; stroke-linejoin:round; stroke-linecap:round; fill:none" d="M 9.83561 842.128L 9.83561 842.598"/>
<path style="stroke:#000000; stroke-width:0.850394; stroke-linejoin:round; stroke-linecap:round; fill:none" d="M 14.9911 859.131L 14.4911 859.131L 14.4911 858.661L 14.9911 858.661L 14.9911 859.131z"/>
<path style="stroke:#000000; stroke-width:0.850394; stroke-linejoin:round; stroke-linecap:round; fill:none" d="M 14.9913 850.63L 14.9913 851.1"/>
<path style="stroke:#000000; stroke-width:0.850394; stroke-linejoin:round; stroke-linecap:round; fill:none" d="M 14.9913 851.1L 14.4913 851.1"/>
<path style="stroke:#000000; stroke-width:0.850394; stroke-linejoin:round; stroke-linecap:round; fill:none" d="M 14.4913 851.1L 14.4913 850.63"/>
<path style="stroke:#000000; stroke-width:0.850394; stroke-linejoin:round; stroke-linecap:round; fill:none" d="M 14.9913 850.16L 14.4913 850.16"/>
<path style="stroke:#000000; stroke-width:0.850394; stroke-linejoin:round; stroke-linecap:round; fill:none" d="M 14.9913 850.63L 14.9913 850.16"/>
<path style="stroke:#000000; stroke-width:0.850394; stroke-linejoin:round; stroke-linecap:round; fill:none" d="M 14.4913 850.16L 14.4913 850.63"/>
<path style="stroke:#000000; stroke-width:0.850394; stroke-linejoin:round; stroke-linecap:round; fill:none" d="M 14.9911 842.128L 14.9911 842.598"/>
<path style="stroke:#000000; stroke-width:0.850394; stroke-linejoin:round; stroke-linecap:round; fill:none" d="M 14.9911 842.598L 14.4911 842.598"/>
<path style="stroke:#000000; stroke-width:0.850394; stroke-linejoin:round; stroke-linecap:round; fill:none" d="M 14.4911 842.598L 14.4911 842.128"/>
<path style="stroke:#000000; stroke-width:0.850394; stroke-linejoin:round; stroke-linecap:round; fill:none" d="M 22.2155 859.131L 22.2155 858.661"/>
<path style="stroke:#000000; stroke-width:0.850394; stroke-linejoin:round; stroke-linecap:round; fill:none" d="M 22.2155 858.661L 22.7155 858.661"/>
<path style="stroke:#000000; stroke-width:0.850394; stroke-linejoin:round; stroke-linecap:round; fill:none" d="M 22.7155 858.661L 22.7155 859.131"/>
<path style="stroke:#000000; stroke-width:0.850394; stroke-linejoin:round; stroke-linecap:round; fill:none" d="M 22.7152 851.1L 22.7152 850.63"/>
<path style="stroke:#000000; stroke-width:0.850394; stroke-linejoin:round; stroke-linecap:round; fill:none" d="M 22.2152 851.1L 22.7152 851.1"/>
<path style="stroke:#000000; stroke-width:0.850394; stroke-linejoin:round; stroke-linecap:round; fill:none" d="M 22.2152 850.63L 22.2152 851.1"/>
<path style="stroke:#000000; stroke-width:0.850394; stroke-linejoin:round; stroke-linecap:round; fill:none" d="M 22.2152 850.63L 22.2152 850.16"/>
<path style="stroke:#000000; stroke-width:0.850394; stroke-linejoin:round; stroke-linecap:round; fill:none" d="M 22.2152 850.16L 22.7152 850.16"/>
<path style="stroke:#000000; stroke-width:0.850394; stroke-linejoin:round; stroke-linecap:round; fill:none" d="M 22.7152 850.16L 22.7152 850.63"/>
<path style="stroke:#000000; stroke-width:0.850394; stroke-linejoin:round; stroke-linecap:round; fill:none" d="M 22.2155 842.598L 22.7155 842.598"/>
<path style="stroke:#000000; stroke-width:0.850394; stroke-linejoin:round; stroke-linecap:round; fill:none" d="M 22.2155 842.128L 22.2155 842.598"/>
<path style="stroke:#000000; stroke-width:0.850394; stroke-linejoin:round; stroke-linecap:round; fill:none" d="M 22.7155 842.598L 22.7155 842.128"/>
</g>
</svg>