<?xml version="1.0" encoding="UTF-8"?>
<svg width="2304" height="1152" version="1.1" viewBox="0 0 2304 1152" xml:space="preserve" xmlns="http://www.w3.org/2000/svg" xmlns:cc="http://creativecommons.org/ns#" xmlns:dc="http://purl.org/dc/elements/1.1/" xmlns:rdf="http://www.w3.org/1999/02/22-rdf-syntax-ns#" xmlns:xlink="http://www.w3.org/1999/xlink"><metadata><rdf:RDF><cc:Work rdf:about=""><dc:format>image/svg+xml</dc:format><dc:type rdf:resource="http://purl.org/dc/dcmitype/StillImage"/><dc:title/></cc:Work></rdf:RDF></metadata><defs><clipPath id="clipPath1333"><path d="m0 0h1728v864h-1728z"/></clipPath></defs><g transform="matrix(1.3333 0 0 -1.3333 0 1152)"><g clip-path="url(#clipPath1333)"><g transform="translate(-646.71 -5.5512)" fill="none" stroke="#f00" stroke-miterlimit="2.6131" stroke-width="1.1498"><g transform="translate(599.82)"><path d="m356.52 474.51v32.442l7.9447 11.474v10.781l-7.9447 9.3875v229.85l7.9447 9.7373v10.776l-7.9447 8.6935v35.476c0 5.3688 3.8829 9.6945 8.7052 9.6945h265.5c4.8214 0 8.7083-4.3257 8.7083-9.6945v-35.821l-7.9447-11.13v-11.127l7.9447-11.474v-222.9l-9.5346-11.474v-11.13l9.5346-13.213v-30.355c0-5.3694-3.8869-9.6865-8.7083-9.6865h-265.5c-4.8223 0-8.7052 4.3171-8.7052 9.6865z" stroke-miterlimit="2.6131" stroke-width="1.1498"/><path d="m604.86 795.65c0-5.567-4.5131-10.08-10.08-10.08-5.567 0-10.08 4.5128-10.08 10.08 0 5.5669 4.513 10.08 10.08 10.08 5.5669 0 10.08-4.5128 10.08-10.08z" stroke-miterlimit="2.6131" stroke-width="1.1498"/><path d="m530.51 590.82c0-17.965-14.563-32.527-32.527-32.527-17.964 0-32.527 14.562-32.527 32.527 0 17.964 14.563 32.527 32.527 32.527 17.964 0 32.527-14.562 32.527-32.527z" stroke-miterlimit="2.6131" stroke-width="1.3491"/><path d="m507.34 505.32c0-5.567-4.5131-10.08-10.08-10.08-5.567 0-10.08 4.5127-10.08 10.08 0 5.5669 4.513 10.08 10.08 10.08 5.5669 0 10.08-4.5128 10.08-10.08z" stroke-miterlimit="2.6131" stroke-width="1.1498"/><path d="m409.74 795.65c0-5.567-4.5131-10.08-10.08-10.08-5.567 0-10.08 4.5127-10.08 10.08 0 5.5669 4.513 10.08 10.08 10.08 5.5669 0 10.08-4.5128 10.08-10.08z" stroke-miterlimit="2.6131" stroke-width="1.1498"/></g><g transform="translate(0 9.4825)" stroke-miterlimit="2.6131" stroke-width="1.1498"><g transform="translate(30.421 91.263)"><path d="m754.06 448.9-0.0417 61.92h17.958l0.0417-61.92z"/><path d="m807.98 450.34h38.88v82.937h-38.88z"/></g><path d="m673.22 465.03v32.442l7.9447 11.474v10.781l-7.9447 9.3875v229.85l7.9447 9.7373v10.776l-7.9447 8.6935v35.476c0 5.3688 3.8829 9.6945 8.7052 9.6945h265.5c4.8214 0 8.7083-4.3257 8.7083-9.6945v-35.821l-7.9447-11.13v-11.127l7.9447-11.474v-222.9l-9.5346-11.474v-11.13l9.5346-13.213v-30.355c0-5.3694-3.8869-9.6865-8.7083-9.6865h-265.5c-4.8223 0-8.7052 4.3171-8.7052 9.6865z"/></g><g stroke-miterlimit="2.6131" stroke-width="1.1498"><path d="m921.55 795.65c0-5.567-4.5131-10.08-10.08-10.08-5.567 0-10.08 4.5128-10.08 10.08 0 5.5669 4.513 10.08 10.08 10.08 5.5669 0 10.08-4.5128 10.08-10.08z"/><path d="m824.03 505.32c0-5.567-4.5131-10.08-10.08-10.08-5.567 0-10.08 4.5127-10.08 10.08 0 5.5669 4.513 10.08 10.08 10.08 5.5669 0 10.08-4.5128 10.08-10.08z"/><path d="m726.43 795.65c0-5.567-4.5131-10.08-10.08-10.08-5.567 0-10.08 4.5127-10.08 10.08 0 5.5669 4.513 10.08 10.08 10.08 5.5669 0 10.08-4.5128 10.08-10.08z"/></g><path d="m824.03 657.28c0-5.567-4.5131-10.08-10.08-10.08-5.567 0-10.08 4.5127-10.08 10.08 0 5.5669 4.513 10.08 10.08 10.08 5.5669 0 10.08-4.5128 10.08-10.08z" stroke-miterlimit="2.6131" stroke-width="1.1498"/></g></g></g></svg>
